<svg width="231" height="44" viewBox="0 0 231 44" fill="none" xmlns="http://www.w3.org/2000/svg">
<path d="M221 0H10C4.47715 0 0 4.47715 0 10V34C0 39.5228 4.47715 44 10 44H221C226.523 44 231 39.5228 231 34V10C231 4.47715 226.523 0 221 0Z" fill="white"/>
<path d="M15.8398 26.9997H17.2858V23.9817H19.4098C19.4898 23.9817 19.5958 23.9777 19.7278 23.9697C19.8638 23.9617 19.9878 23.9497 20.0998 23.9337C20.8438 23.8177 21.3958 23.5077 21.7558 23.0037C22.1198 22.4957 22.3018 21.8857 22.3018 21.1737C22.3018 20.4577 22.1218 19.8477 21.7618 19.3437C21.4058 18.8357 20.8518 18.5237 20.0998 18.4077C19.9878 18.3877 19.8658 18.3757 19.7338 18.3717C19.6018 18.3637 19.4938 18.3597 19.4098 18.3597H15.8398V26.9997ZM17.2858 22.6317V19.7157H19.3498C19.4298 19.7157 19.5198 19.7197 19.6198 19.7277C19.7198 19.7357 19.8118 19.7497 19.8958 19.7697C20.1358 19.8297 20.3238 19.9377 20.4598 20.0937C20.5998 20.2457 20.6978 20.4177 20.7538 20.6097C20.8138 20.8017 20.8438 20.9897 20.8438 21.1737C20.8438 21.3577 20.8138 21.5457 20.7538 21.7377C20.6978 21.9297 20.5998 22.1017 20.4598 22.2537C20.3238 22.4057 20.1358 22.5117 19.8958 22.5717C19.8118 22.5957 19.7198 22.6117 19.6198 22.6197C19.5198 22.6277 19.4298 22.6317 19.3498 22.6317H17.2858ZM27.7579 27.1797C28.6219 27.1797 29.3619 26.9917 29.9779 26.6157C30.5979 26.2357 31.0719 25.7077 31.3999 25.0317C31.7319 24.3557 31.8979 23.5717 31.8979 22.6797C31.8979 21.7837 31.7319 20.9997 31.3999 20.3277C31.0719 19.6517 30.5979 19.1257 29.9779 18.7497C29.3619 18.3697 28.6219 18.1797 27.7579 18.1797C26.8979 18.1797 26.1579 18.3697 25.5379 18.7497C24.9219 19.1257 24.4479 19.6517 24.1159 20.3277C23.7879 20.9997 23.6239 21.7837 23.6239 22.6797C23.6239 23.5717 23.7879 24.3557 24.1159 25.0317C24.4479 25.7077 24.9219 26.2357 25.5379 26.6157C26.1579 26.9917 26.8979 27.1797 27.7579 27.1797ZM27.7579 25.8177C26.8899 25.8057 26.2379 25.5157 25.8019 24.9477C25.3659 24.3797 25.1499 23.6237 25.1539 22.6797C25.1579 22.0477 25.2559 21.4957 25.4479 21.0237C25.6399 20.5517 25.9279 20.1857 26.3119 19.9257C26.6959 19.6617 27.1779 19.5337 27.7579 19.5417C28.6299 19.5537 29.2819 19.8437 29.7139 20.4117C30.1499 20.9797 30.3679 21.7357 30.3679 22.6797C30.3679 23.3077 30.2699 23.8597 30.0739 24.3357C29.8819 24.8077 29.5919 25.1737 29.2039 25.4337C28.8199 25.6937 28.3379 25.8217 27.7579 25.8177ZM35.1529 26.9997H36.5809L38.3449 20.8557L40.1089 26.9997H41.5369L44.0569 18.3597H42.5389L40.8229 24.5997L39.1009 18.3597L37.5829 18.3717L35.8669 24.5997L34.1449 18.3597H32.6269L35.1529 26.9997ZM45.6359 26.9997H51.2159V25.6437H47.0819V23.2017H50.4959V21.8457H47.0819V19.7157H51.2159V18.3597H45.6359V26.9997ZM53.2554 26.9997H54.7014V23.9817H56.7534L58.2174 26.9997H59.8554L58.2594 23.7237C58.7514 23.5037 59.1174 23.1697 59.3574 22.7217C59.5974 22.2737 59.7174 21.7577 59.7174 21.1737C59.7174 20.4577 59.5374 19.8477 59.1774 19.3437C58.8214 18.8357 58.2674 18.5237 57.5154 18.4077C57.4034 18.3877 57.2814 18.3757 57.1494 18.3717C57.0174 18.3637 56.9094 18.3597 56.8254 18.3597H53.2554V26.9997ZM54.7014 22.6317V19.7157H56.7654C56.8454 19.7157 56.9354 19.7197 57.0354 19.7277C57.1354 19.7357 57.2274 19.7497 57.3114 19.7697C57.5514 19.8297 57.7394 19.9377 57.8754 20.0937C58.0154 20.2457 58.1134 20.4177 58.1694 20.6097C58.2294 20.8017 58.2594 20.9897 58.2594 21.1737C58.2594 21.3577 58.2294 21.5457 58.1694 21.7377C58.1134 21.9297 58.0154 22.1017 57.8754 22.2537C57.7394 22.4057 57.5514 22.5117 57.3114 22.5717C57.2274 22.5957 57.1354 22.6117 57.0354 22.6197C56.9354 22.6277 56.8454 22.6317 56.7654 22.6317H54.7014ZM61.7773 26.9997H67.3573V25.6437H63.2233V23.2017H66.6373V21.8457H63.2233V19.7157H67.3573V18.3597H61.7773V26.9997ZM69.3968 26.9997H72.1508C72.2188 26.9997 72.3608 26.9977 72.5768 26.9937C72.7968 26.9897 73.0048 26.9757 73.2008 26.9517C73.8888 26.8637 74.4688 26.6217 74.9408 26.2257C75.4128 25.8257 75.7708 25.3177 76.0148 24.7017C76.2588 24.0857 76.3808 23.4117 76.3808 22.6797C76.3808 21.9477 76.2588 21.2737 76.0148 20.6577C75.7708 20.0417 75.4128 19.5337 74.9408 19.1337C74.4688 18.7337 73.8888 18.4917 73.2008 18.4077C73.0008 18.3837 72.7928 18.3697 72.5768 18.3657C72.3648 18.3617 72.2228 18.3597 72.1508 18.3597H69.3968V26.9997ZM70.8668 25.6377V19.7217H72.1508C72.2708 19.7217 72.4228 19.7257 72.6068 19.7337C72.7908 19.7377 72.9568 19.7557 73.1048 19.7877C73.5048 19.8637 73.8328 20.0417 74.0888 20.3217C74.3448 20.6017 74.5348 20.9477 74.6588 21.3597C74.7868 21.7677 74.8508 22.2077 74.8508 22.6797C74.8508 23.1317 74.7908 23.5637 74.6708 23.9757C74.5508 24.3877 74.3608 24.7377 74.1008 25.0257C73.8448 25.3097 73.5128 25.4917 73.1048 25.5717C72.9568 25.5997 72.7908 25.6177 72.6068 25.6257C72.4228 25.6337 72.2708 25.6377 72.1508 25.6377H70.8668ZM81.4016 26.9997H85.1755C86.0275 26.9997 86.6735 26.7637 87.1135 26.2917C87.5535 25.8197 87.7735 25.1997 87.7735 24.4317C87.7735 23.9957 87.6655 23.5997 87.4495 23.2437C87.2375 22.8877 86.9235 22.6217 86.5075 22.4457C86.7755 22.2857 86.9855 22.0597 87.1375 21.7677C87.2935 21.4717 87.3715 21.1277 87.3715 20.7357C87.3715 20.3477 87.2796 19.9717 87.0956 19.6077C86.9156 19.2437 86.6376 18.9457 86.2616 18.7137C85.8896 18.4777 85.4115 18.3597 84.8275 18.3597H81.4016V26.9997ZM82.8655 21.8097V19.7097H84.8095C85.1535 19.7097 85.4215 19.8097 85.6135 20.0097C85.8055 20.2097 85.9016 20.4597 85.9016 20.7597C85.9016 21.1037 85.7955 21.3657 85.5835 21.5457C85.3755 21.7217 85.1175 21.8097 84.8095 21.8097H82.8655ZM82.8655 25.6377V23.1597H85.0375C85.4415 23.1597 85.7555 23.2777 85.9795 23.5137C86.2035 23.7497 86.3155 24.0417 86.3155 24.3897C86.3155 24.7737 86.1895 25.0777 85.9375 25.3017C85.6895 25.5257 85.3755 25.6377 84.9955 25.6377H82.8655ZM91.3086 26.9997H92.7726V23.4597L95.7066 18.3597H94.0206L92.0406 21.8037L90.0546 18.3597H88.3686L91.3086 23.4597V26.9997Z" fill="#6E798F"/>
<path d="M138.008 22.5678V28.8496C138.006 29.2413 137.902 29.6257 137.707 29.9653C137.512 30.3049 137.232 30.5879 136.894 30.7868L131.452 33.9211C131.115 34.122 130.73 34.2281 130.338 34.2281C129.946 34.2281 129.561 34.122 129.224 33.9211L123.782 30.7868C123.444 30.5879 123.164 30.3049 122.969 29.9653C122.774 29.6257 122.67 29.2413 122.667 28.8496V27.0865L125.454 25.4693V28.534L130.329 31.3636L135.205 28.534V22.8878L130.329 20.0581L118.906 26.6751C118.566 26.8668 118.182 26.9675 117.792 26.9675C117.401 26.9675 117.018 26.8668 116.677 26.6751L111.236 23.5277C110.903 23.3258 110.629 23.0417 110.438 22.7028C110.247 22.3638 110.147 21.9815 110.147 21.5927V15.3109C110.15 14.9191 110.254 14.5347 110.449 14.1952C110.644 13.8556 110.924 13.5725 111.262 13.3737L116.704 10.2393C117.041 10.0404 117.426 9.93555 117.818 9.93555C118.21 9.93555 118.595 10.0404 118.932 10.2393L124.374 13.3737C124.711 13.5725 124.992 13.8556 125.187 14.1952C125.382 14.5347 125.486 14.9191 125.488 15.3109V17.074L122.685 18.6803V15.633L117.809 12.8034L112.934 15.633V21.2727L117.809 24.1023L129.232 17.4853C129.572 17.2937 129.956 17.193 130.347 17.193C130.737 17.193 131.121 17.2937 131.461 17.4853L136.903 20.6328C137.238 20.8325 137.516 21.1157 137.71 21.4548C137.904 21.7938 138.007 22.1773 138.008 22.5678V22.5678Z" fill="#7B3FE4"/>
<path d="M147.706 31.1327V26.2375C148.237 26.9057 149.202 27.2801 150.318 27.2801C153.17 27.2801 155.096 25.2558 155.096 22.1693C155.096 19.0829 153.326 17.0586 150.556 17.0586C149.278 17.0586 148.294 17.5309 147.704 18.2971V17.2088H144.975V31.1262L147.706 31.1327ZM149.981 24.9206C148.505 24.9206 147.543 23.8192 147.543 22.1693C147.543 20.5195 148.505 19.3985 149.981 19.3985C151.415 19.3985 152.399 20.4868 152.399 22.1693C152.399 23.8519 151.422 24.9206 149.981 24.9206Z" fill="#0A0A0D"/>
<path d="M161.299 27.2801C164.346 27.2801 166.523 25.1165 166.523 22.1693C166.523 19.2222 164.346 17.0586 161.299 17.0586C158.252 17.0586 156.075 19.22 156.075 22.1693C156.075 25.1187 158.252 27.2801 161.299 27.2801ZM161.299 24.9206C159.826 24.9206 158.822 23.7996 158.822 22.1693C158.822 20.539 159.828 19.3985 161.299 19.3985C162.771 19.3985 163.776 20.5173 163.776 22.1693C163.776 23.8214 162.775 24.9206 161.299 24.9206Z" fill="#0A0A0D"/>
<path d="M170.913 27.1236V12.9102H168.182V27.1236H170.913Z" fill="#0A0A0D"/>
<path d="M179.125 17.2148L177.062 23.6033L174.979 17.2148H172.182L175.777 27.0424L174.323 31.1323H176.935L178.339 27.0859L181.937 17.2192L179.125 17.2148Z" fill="#0A0A0D"/>
<path d="M189.611 18.1992C189.061 17.5113 188.088 17.0586 186.88 17.0586C183.989 17.0586 182.241 19.0829 182.241 22.1693C182.241 25.2558 183.983 27.2801 186.919 27.2801C188.079 27.2801 189.119 26.8448 189.631 26.1199V27.4259C189.631 28.3488 189.021 28.9975 188.197 28.9975H183.636V31.1415H188.63C190.869 31.1415 192.363 29.7854 192.363 27.7198V17.2153H189.611V18.1992ZM187.352 24.9206C185.896 24.9206 184.934 23.8323 184.934 22.1693C184.934 20.5064 185.896 19.3985 187.352 19.3985C188.808 19.3985 189.788 20.4868 189.788 22.1693C189.788 23.8519 188.826 24.9206 187.352 24.9206Z" fill="#0A0A0D"/>
<path d="M199.251 27.2801C202.299 27.2801 204.475 25.1165 204.475 22.1693C204.475 19.2222 202.299 17.0586 199.251 17.0586C196.204 17.0586 194.027 19.22 194.027 22.1693C194.027 25.1187 196.204 27.2801 199.251 27.2801ZM199.251 24.9206C197.776 24.9206 196.774 23.7996 196.774 22.1693C196.774 20.539 197.776 19.3985 199.251 19.3985C200.727 19.3985 201.728 20.5173 201.728 22.1693C201.728 23.8214 200.725 24.9206 199.251 24.9206Z" fill="#0A0A0D"/>
<path d="M208.726 27.1234V21.697C208.726 20.4193 209.57 19.4964 210.77 19.4964C211.91 19.4964 212.676 20.3671 212.676 21.5599V27.1234H215.428V20.9504C215.428 18.6693 213.974 17.0586 211.727 17.0586C210.371 17.0586 209.272 17.6289 208.722 18.5822V17.2153H205.975V27.1234H208.726Z" fill="#0A0A0D"/>
</svg>
